<mxfile host="app.diagrams.net" modified="2022-11-27T00:41:15.431Z" agent="5.0 (Macintosh; Intel Mac OS X 10_15_7) AppleWebKit/537.36 (KHTML, like Gecko) Chrome/107.0.0.0 Safari/537.36" version="20.6.0" etag="Pv_6aGK8Qsu1Yuy20PLD" type="github">
  <diagram id="KdkBPKrEq4bngwRAP6pD" name="Page-1">
    <mxGraphModel dx="946" dy="557" grid="0" gridSize="10" guides="1" tooltips="1" connect="1" arrows="1" fold="1" page="1" pageScale="1" pageWidth="827" pageHeight="1169" math="0" shadow="0">
      <root>
        <mxCell id="0" />
        <mxCell id="1" parent="0" />
        <mxCell id="K7mLLM8VNK1RUqNP_vN0-10" value="Physician" style="points=[[0.35,0,0],[0.98,0.51,0],[1,0.71,0],[0.67,1,0],[0,0.795,0],[0,0.65,0]];verticalLabelPosition=bottom;sketch=0;html=1;verticalAlign=top;aspect=fixed;align=center;pointerEvents=1;shape=mxgraph.cisco19.user;fillColor=#000000;strokeColor=none;" vertex="1" parent="1">
          <mxGeometry x="628" y="74" width="50" height="50" as="geometry" />
        </mxCell>
        <mxCell id="K7mLLM8VNK1RUqNP_vN0-57" value="" style="shape=mxgraph.signs.people.man_1;html=1;pointerEvents=1;fillColor=#FFFFFF;strokeColor=default;verticalLabelPosition=bottom;verticalAlign=top;align=center;strokeWidth=1;fillStyle=solid;perimeterSpacing=4;" vertex="1" parent="1">
          <mxGeometry x="230" y="105" width="117" height="246.5" as="geometry" />
        </mxCell>
        <mxCell id="K7mLLM8VNK1RUqNP_vN0-67" style="edgeStyle=none;rounded=0;orthogonalLoop=1;jettySize=auto;html=1;startArrow=block;startFill=1;endArrow=block;endFill=1;entryX=0.5;entryY=1;entryDx=0;entryDy=0;" edge="1" parent="1" source="K7mLLM8VNK1RUqNP_vN0-43" target="K7mLLM8VNK1RUqNP_vN0-60">
          <mxGeometry relative="1" as="geometry">
            <mxPoint x="297" y="272" as="targetPoint" />
          </mxGeometry>
        </mxCell>
        <mxCell id="K7mLLM8VNK1RUqNP_vN0-43" value="" style="ellipse;fillColor=strokeColor;strokeColor=#FF0000;" vertex="1" parent="1">
          <mxGeometry x="301" y="324" width="8" height="10" as="geometry" />
        </mxCell>
        <mxCell id="K7mLLM8VNK1RUqNP_vN0-68" style="edgeStyle=none;rounded=0;orthogonalLoop=1;jettySize=auto;html=1;entryX=0.5;entryY=1;entryDx=0;entryDy=0;startArrow=block;startFill=1;endArrow=block;endFill=1;" edge="1" parent="1" source="K7mLLM8VNK1RUqNP_vN0-47" target="K7mLLM8VNK1RUqNP_vN0-61">
          <mxGeometry relative="1" as="geometry" />
        </mxCell>
        <mxCell id="K7mLLM8VNK1RUqNP_vN0-47" value="" style="ellipse;fillColor=strokeColor;strokeColor=#FF0000;" vertex="1" parent="1">
          <mxGeometry x="266" y="324" width="8" height="10" as="geometry" />
        </mxCell>
        <mxCell id="K7mLLM8VNK1RUqNP_vN0-66" style="edgeStyle=none;rounded=0;orthogonalLoop=1;jettySize=auto;html=1;entryX=0.5;entryY=0;entryDx=0;entryDy=0;startArrow=block;startFill=1;endArrow=block;endFill=1;" edge="1" parent="1" source="K7mLLM8VNK1RUqNP_vN0-48" target="K7mLLM8VNK1RUqNP_vN0-62">
          <mxGeometry relative="1" as="geometry" />
        </mxCell>
        <mxCell id="K7mLLM8VNK1RUqNP_vN0-48" value="" style="ellipse;fillColor=strokeColor;strokeColor=#FF0000;" vertex="1" parent="1">
          <mxGeometry x="301" y="177" width="8" height="8" as="geometry" />
        </mxCell>
        <mxCell id="K7mLLM8VNK1RUqNP_vN0-65" style="edgeStyle=none;rounded=0;orthogonalLoop=1;jettySize=auto;html=1;startArrow=block;startFill=1;endArrow=block;endFill=1;" edge="1" parent="1" source="K7mLLM8VNK1RUqNP_vN0-49" target="K7mLLM8VNK1RUqNP_vN0-62">
          <mxGeometry relative="1" as="geometry" />
        </mxCell>
        <mxCell id="K7mLLM8VNK1RUqNP_vN0-49" value="" style="ellipse;fillColor=strokeColor;strokeColor=#FF0000;" vertex="1" parent="1">
          <mxGeometry x="333" y="216" width="7" height="10" as="geometry" />
        </mxCell>
        <mxCell id="K7mLLM8VNK1RUqNP_vN0-64" style="edgeStyle=none;rounded=0;orthogonalLoop=1;jettySize=auto;html=1;exitX=1;exitY=0.5;exitDx=0;exitDy=0;entryX=0;entryY=0.5;entryDx=0;entryDy=0;startArrow=block;startFill=1;endArrow=block;endFill=1;" edge="1" parent="1" source="K7mLLM8VNK1RUqNP_vN0-50" target="K7mLLM8VNK1RUqNP_vN0-62">
          <mxGeometry relative="1" as="geometry" />
        </mxCell>
        <mxCell id="K7mLLM8VNK1RUqNP_vN0-50" value="" style="ellipse;fillColor=strokeColor;strokeColor=#FF0000;" vertex="1" parent="1">
          <mxGeometry x="237" y="216" width="8" height="10" as="geometry" />
        </mxCell>
        <mxCell id="K7mLLM8VNK1RUqNP_vN0-70" style="edgeStyle=none;rounded=0;orthogonalLoop=1;jettySize=auto;html=1;entryX=0.75;entryY=1;entryDx=0;entryDy=0;startArrow=block;startFill=1;endArrow=block;endFill=1;" edge="1" parent="1" source="K7mLLM8VNK1RUqNP_vN0-60" target="K7mLLM8VNK1RUqNP_vN0-62">
          <mxGeometry relative="1" as="geometry" />
        </mxCell>
        <mxCell id="K7mLLM8VNK1RUqNP_vN0-60" value="" style="ellipse;fillColor=strokeColor;strokeColor=#FF0000;" vertex="1" parent="1">
          <mxGeometry x="301" y="263" width="8" height="10" as="geometry" />
        </mxCell>
        <mxCell id="K7mLLM8VNK1RUqNP_vN0-69" style="edgeStyle=none;rounded=0;orthogonalLoop=1;jettySize=auto;html=1;entryX=0.25;entryY=1;entryDx=0;entryDy=0;startArrow=block;startFill=1;endArrow=block;endFill=1;" edge="1" parent="1" source="K7mLLM8VNK1RUqNP_vN0-61" target="K7mLLM8VNK1RUqNP_vN0-62">
          <mxGeometry relative="1" as="geometry" />
        </mxCell>
        <mxCell id="K7mLLM8VNK1RUqNP_vN0-61" value="" style="ellipse;fillColor=strokeColor;strokeColor=#FF0000;" vertex="1" parent="1">
          <mxGeometry x="266" y="263" width="8" height="10" as="geometry" />
        </mxCell>
        <mxCell id="K7mLLM8VNK1RUqNP_vN0-76" style="rounded=0;orthogonalLoop=1;jettySize=auto;html=1;exitX=1;exitY=1;exitDx=0;exitDy=0;entryX=0;entryY=0.5;entryDx=0;entryDy=0;startArrow=block;startFill=1;endArrow=block;endFill=1;" edge="1" parent="1" source="K7mLLM8VNK1RUqNP_vN0-62" target="K7mLLM8VNK1RUqNP_vN0-74">
          <mxGeometry relative="1" as="geometry" />
        </mxCell>
        <mxCell id="K7mLLM8VNK1RUqNP_vN0-62" value="SINK" style="rounded=0;whiteSpace=wrap;html=1;fillStyle=solid;strokeColor=default;strokeWidth=1;fillColor=#FFFFFF;" vertex="1" parent="1">
          <mxGeometry x="270" y="214" width="37" height="14" as="geometry" />
        </mxCell>
        <mxCell id="K7mLLM8VNK1RUqNP_vN0-82" style="edgeStyle=orthogonalEdgeStyle;rounded=0;orthogonalLoop=1;jettySize=auto;html=1;startArrow=none;startFill=0;endArrow=block;endFill=1;" edge="1" parent="1" source="K7mLLM8VNK1RUqNP_vN0-74" target="K7mLLM8VNK1RUqNP_vN0-78">
          <mxGeometry relative="1" as="geometry">
            <mxPoint x="540" y="244" as="targetPoint" />
            <Array as="points">
              <mxPoint x="386" y="204" />
            </Array>
          </mxGeometry>
        </mxCell>
        <mxCell id="K7mLLM8VNK1RUqNP_vN0-74" value="PDA" style="shape=image;html=1;verticalAlign=top;verticalLabelPosition=bottom;labelBackgroundColor=#ffffff;imageAspect=0;aspect=fixed;image=https://cdn1.iconfinder.com/data/icons/DarkGlass_Reworked/128x128/devices/pda_black.png;fillStyle=solid;strokeColor=default;strokeWidth=1;fillColor=#000000;" vertex="1" parent="1">
          <mxGeometry x="367" y="239" width="37" height="37" as="geometry" />
        </mxCell>
        <mxCell id="K7mLLM8VNK1RUqNP_vN0-83" style="edgeStyle=orthogonalEdgeStyle;rounded=0;orthogonalLoop=1;jettySize=auto;html=1;entryX=0;entryY=0.65;entryDx=0;entryDy=0;entryPerimeter=0;startArrow=none;startFill=0;endArrow=block;endFill=1;" edge="1" parent="1" source="K7mLLM8VNK1RUqNP_vN0-78" target="K7mLLM8VNK1RUqNP_vN0-10">
          <mxGeometry relative="1" as="geometry" />
        </mxCell>
        <mxCell id="K7mLLM8VNK1RUqNP_vN0-84" style="edgeStyle=orthogonalEdgeStyle;rounded=0;orthogonalLoop=1;jettySize=auto;html=1;startArrow=none;startFill=0;endArrow=block;endFill=1;" edge="1" parent="1" source="K7mLLM8VNK1RUqNP_vN0-78" target="K7mLLM8VNK1RUqNP_vN0-79">
          <mxGeometry relative="1" as="geometry" />
        </mxCell>
        <mxCell id="K7mLLM8VNK1RUqNP_vN0-85" style="edgeStyle=orthogonalEdgeStyle;rounded=0;orthogonalLoop=1;jettySize=auto;html=1;entryX=0;entryY=0.25;entryDx=0;entryDy=0;startArrow=none;startFill=0;endArrow=block;endFill=1;" edge="1" parent="1" source="K7mLLM8VNK1RUqNP_vN0-78" target="K7mLLM8VNK1RUqNP_vN0-81">
          <mxGeometry relative="1" as="geometry" />
        </mxCell>
        <mxCell id="K7mLLM8VNK1RUqNP_vN0-78" value="Internet" style="sketch=0;outlineConnect=0;fontColor=#232F3E;gradientColor=none;fillColor=#232F3D;strokeColor=none;dashed=0;verticalLabelPosition=bottom;verticalAlign=top;align=center;html=1;fontSize=12;fontStyle=0;aspect=fixed;pointerEvents=1;shape=mxgraph.aws4.internet_alt1;fillStyle=solid;strokeWidth=1;" vertex="1" parent="1">
          <mxGeometry x="499" y="172" width="78" height="48" as="geometry" />
        </mxCell>
        <mxCell id="K7mLLM8VNK1RUqNP_vN0-79" value="Hospital Database" style="shape=image;html=1;verticalAlign=top;verticalLabelPosition=bottom;labelBackgroundColor=#ffffff;imageAspect=0;aspect=fixed;image=https://cdn2.iconfinder.com/data/icons/css-vol-2/24/organisation-128.png;fillStyle=solid;strokeColor=default;strokeWidth=1;fillColor=#000000;" vertex="1" parent="1">
          <mxGeometry x="628" y="159" width="74" height="74" as="geometry" />
        </mxCell>
        <mxCell id="K7mLLM8VNK1RUqNP_vN0-81" value="Emergency" style="shape=image;html=1;verticalAlign=top;verticalLabelPosition=bottom;labelBackgroundColor=#ffffff;imageAspect=0;aspect=fixed;image=https://cdn4.iconfinder.com/data/icons/aiga-symbol-signs/612/aiga_first_aid_bg-128.png;fillStyle=solid;strokeColor=default;strokeWidth=1;fillColor=#000000;" vertex="1" parent="1">
          <mxGeometry x="628" y="287" width="61" height="61" as="geometry" />
        </mxCell>
      </root>
    </mxGraphModel>
  </diagram>
</mxfile>
